<svg width="318" height="244" viewBox="0 0 318 244" fill="none" xmlns="http://www.w3.org/2000/svg"><path d="M33.8629 109.713L120.664 94.3309C125.316 93.5065 129.411 97.4583 128.751 102.136C125.577 124.608 108.07 142.84 85.1378 146.904C62.2051 150.968 39.5499 139.852 28.9199 119.826C26.7074 115.658 29.2103 110.537 33.8629 109.713Z" fill="#58CC02"/><path d="M194.742 37.9905L125.247 92.2984C121.522 95.2093 121.714 100.901 125.627 103.539C144.427 116.214 169.67 115.385 188.03 101.037C206.391 86.6886 213.302 62.3903 205.555 41.079C203.942 36.6435 198.467 35.0796 194.742 37.9905Z" fill="#58CC02"/><path d="M90.2486 181.909C91.6157 177.936 95.9392 175.823 99.9055 177.19L111.222 181.09C115.188 182.456 117.296 186.785 115.929 190.758C114.562 194.731 110.238 196.844 106.272 195.477L94.9551 191.578C90.9888 190.211 88.8816 185.882 90.2486 181.909Z" fill="#F49000"/><path d="M211.024 128.069C207.163 126.428 202.704 128.234 201.064 132.101L196.385 143.134C194.744 147.002 196.545 151.466 200.405 153.106C204.266 154.747 208.725 152.941 210.365 149.074L215.045 138.04C216.685 134.173 214.885 129.709 211.024 128.069Z" fill="#F49000"/><path d="M71.3399 53.6237C87.9708 53.307 98.8782 51.993 104.062 49.6815C109.212 47.3853 117.35 40.2538 128.477 28.287C135.912 20.2908 148.412 19.8379 156.396 27.2753C158.342 29.0878 159.902 31.275 160.982 33.7059L185.756 89.4302C198.935 119.076 185.603 153.817 155.978 167.026C126.353 180.236 91.6531 166.912 78.4736 137.266L53.6554 81.4408C49.2209 71.4659 53.7066 59.7766 63.6746 55.3319C66.0901 54.2549 68.6967 53.674 71.3399 53.6237Z" fill="#58CC02"/><path d="M81.0704 60.6656L105.008 71.0166C106.272 71.5796 106.62 73.2129 105.693 74.2422C101.243 79.1878 94.0073 80.7498 87.7736 77.9747C81.5399 75.1996 77.859 68.7776 78.5569 62.1616C78.7022 60.7846 79.8057 60.1026 81.0704 60.6656Z" fill="#89E219"/><path d="M100.234 69.3215C108.271 72.8735 118.162 68.4318 120.799 60.1203C126.981 74.0242 136.194 94.7487 136.148 94.644C136.117 94.5743 129.258 97.6326 115.571 103.819C111.009 93.6985 105.897 82.1994 100.234 69.3215Z" fill="#89E219"/><path d="M74.856 68.4655L98.467 78.9767C99.7325 79.5401 100.08 81.1737 99.1538 82.2029C94.7023 87.1479 87.4626 88.7082 81.2247 85.9312C74.9867 83.1542 71.302 76.7305 71.9987 70.1139C72.1436 68.7368 73.5905 67.9021 74.856 68.4655Z" fill="#89E219"/><path d="M81.2402 70.1907L82.8173 69.4875C93.8834 64.5532 106.845 69.5303 111.768 80.6041L117.524 93.5496C122.447 104.623 117.467 117.6 106.4 122.535L104.823 123.238C93.7572 128.172 80.7954 123.195 75.8723 112.121L70.1171 99.1759C65.1941 88.1021 70.174 75.125 81.2402 70.1907Z" fill="#89E219"/><path d="M126.838 40.2498L118.838 64.8584C118.409 66.1775 119.387 67.5292 120.77 67.528C127.414 67.5222 133.414 63.1765 135.528 56.6749C137.641 50.1734 135.343 43.1331 129.972 39.2254C128.853 38.4121 127.267 38.9308 126.838 40.2498Z" fill="#89E219"/><path d="M136.703 40.8985L128.702 65.5071C128.274 66.8261 129.252 68.1779 130.635 68.1767C137.279 68.1709 143.279 63.8252 145.392 57.3236C147.506 50.8221 145.208 43.7818 139.836 39.8741C138.718 39.0607 137.132 39.5795 136.703 40.8985Z" fill="#89E219"/><path d="M132.787 46.709L134.364 46.0058C145.43 41.0715 158.392 46.0486 163.315 57.1224L169.07 70.0679C173.993 81.1417 169.013 94.1188 157.947 99.0531L156.472 99.7106C145.468 104.617 132.575 99.7251 127.592 88.7525L121.735 75.8527C116.724 64.8183 121.601 51.8022 132.628 46.7804C132.681 46.7562 132.734 46.7326 132.787 46.709Z" fill="#89E219"/><path d="M84.7667 77.6983C92.8993 74.0722 102.425 77.7298 106.043 85.8679L109.973 94.7092C113.591 102.847 109.932 112.384 101.799 116.01C93.6666 119.637 84.1409 115.979 80.523 107.841L76.5924 98.9996C72.9744 90.8614 76.6342 81.3245 84.7667 77.6983Z" fill="white"/><path d="M136.922 54.4503C145.054 50.8241 154.58 54.4818 158.198 62.6199L162.128 71.4611C165.746 79.5993 162.086 89.1361 153.954 92.7623C145.821 96.3885 136.296 92.7309 132.678 84.5927L128.747 75.7515C125.129 67.6134 128.789 58.0765 136.922 54.4503Z" fill="white"/><path d="M90.8235 85.0872C94.6575 83.3777 99.1483 85.1021 100.854 88.9387L104.223 96.5171C105.929 100.354 104.203 104.85 100.369 106.559C96.5354 108.269 92.0446 106.545 90.3389 102.708L86.9697 95.1295C85.2641 91.2928 86.9894 86.7968 90.8235 85.0872Z" fill="#4B4B4B"/><path d="M132.13 92.4052C130.27 88.2196 125.37 86.3385 121.188 88.2035C117.005 90.0684 115.123 94.9734 116.984 99.1589L122.599 111.79C124.46 115.975 129.359 117.857 133.542 115.992C137.724 114.127 139.607 109.222 137.746 105.036L132.13 92.4052Z" fill="#F49000"/><path d="M131.009 94.4184C129.561 91.163 125.751 89.6999 122.498 91.1504C119.245 92.601 117.781 96.4159 119.228 99.6712L122.971 108.092C124.419 111.347 128.229 112.81 131.482 111.36C134.736 109.909 136.2 106.094 134.752 102.839L131.009 94.4184Z" fill="#B86D00"/><path d="M113.532 99.3289C112.276 94.1254 115.034 88.4235 120.551 85.9638C125.466 83.772 131.543 85.5346 134.565 89.9507L134.836 90.5609L125.116 97.0423L113.803 99.9391L113.532 99.3289Z" fill="#FFC200"/><path d="M120.365 91.7748C119.711 92.4069 118.669 92.3887 118.038 91.7342C117.407 91.0797 117.426 90.0367 118.08 89.4047C119.651 87.8869 121.557 87.0369 123.735 86.8833C124.642 86.8192 125.428 87.5031 125.492 88.4107C125.555 89.3183 124.872 90.106 123.965 90.17C122.559 90.2692 121.38 90.7947 120.365 91.7748Z" fill="#FFDE00"/><path d="M138.351 63.9014C142.185 62.1919 146.676 63.9163 148.382 67.7529L151.751 75.3313C153.457 79.168 151.731 83.664 147.897 85.3736C144.063 87.0831 139.572 85.3587 137.867 81.5221L134.498 73.9437C132.792 70.107 134.517 65.611 138.351 63.9014Z" fill="#4B4B4B"/><path d="M88.6763 96.131C91.116 95.0432 92.2139 92.1822 91.1285 89.7409C90.0432 87.2995 87.1856 86.2023 84.746 87.2901C82.3063 88.3779 81.2085 91.2389 82.2938 93.6802C83.3791 96.1215 86.2367 97.2188 88.6763 96.131Z" fill="white"/><path d="M135.363 75.3202C137.803 74.2324 138.901 71.3714 137.816 68.9301C136.73 66.4888 133.873 65.3915 131.433 66.4793C128.993 67.5671 127.895 70.4281 128.981 72.8694C130.066 75.3108 132.924 76.408 135.363 75.3202Z" fill="white"/><path d="M79.1194 105.581L82.548 119.922C91.1153 117.865 101.484 116.758 113.63 116.631L113.484 101.884C100.3 102.022 88.853 103.244 79.1194 105.581Z" fill="#89E219"/><path d="M162.771 68.2889L171.118 80.4365C163.859 85.4363 156.1 92.412 147.879 101.367L137.033 91.3912C145.957 81.6712 154.524 73.9694 162.771 68.2889Z" fill="#89E219"/><path d="M120.65 137.391L134.146 131.368C134.869 131.045 135.679 131.485 135.745 132.236C136.062 135.846 133.9 139.402 130.335 140.993C126.769 142.584 122.687 141.816 120.223 139.164C119.71 138.612 119.926 137.714 120.65 137.391Z" fill="#89E219"/><path d="M144.204 126.892L157.7 120.869C158.423 120.546 159.233 120.985 159.299 121.737C159.617 125.347 157.455 128.902 153.889 130.494C150.323 132.085 146.241 131.316 143.777 128.664C143.264 128.112 143.48 127.215 144.204 126.892Z" fill="#89E219"/><path d="M137.483 143.511L150.979 137.488C151.702 137.165 152.512 137.605 152.578 138.356C152.895 141.966 150.733 145.522 147.168 147.113C143.602 148.704 139.52 147.936 137.056 145.284C136.543 144.732 136.759 143.834 137.483 143.511Z" fill="#89E219"/><path d="M152.252 141.403H277.572C280.962 141.403 283.711 144.154 283.711 147.549C283.711 147.971 283.667 148.393 283.581 148.807L264.939 238.057C264.344 240.905 261.836 242.945 258.93 242.945H133.61C130.22 242.945 127.471 240.193 127.471 236.799C127.471 236.376 127.515 235.954 127.601 235.541L146.243 146.291C146.838 143.443 149.346 141.403 152.252 141.403Z" fill="white"/><path d="M139.259 204.966H265.641C266.82 204.966 267.776 205.923 267.776 207.104C267.776 207.277 267.755 207.449 267.714 207.617L260.44 237.045C260.204 237.999 259.349 238.669 258.367 238.669H131.985C130.806 238.669 129.85 237.712 129.85 236.531C129.85 236.358 129.871 236.186 129.913 236.018L137.186 206.59C137.422 205.636 138.277 204.966 139.259 204.966Z" fill="#BDFD6C"/><path d="M277.572 141.403H152.195L152.001 141.407L151.944 141.41C150.632 141.476 149.387 141.96 148.381 142.779C147.294 143.663 146.534 144.898 146.243 146.291L127.589 235.598L127.553 235.794L127.544 235.852C127.496 236.165 127.471 236.482 127.471 236.799C127.471 238.447 128.128 240.002 129.269 241.145C130.41 242.287 131.964 242.945 133.61 242.945H258.986L259.181 242.94L259.238 242.937C260.549 242.871 261.795 242.387 262.801 241.569C263.888 240.685 264.648 239.45 264.939 238.057L283.593 148.749L283.628 148.553L283.637 148.495C283.686 148.182 283.711 147.865 283.711 147.549C283.711 145.9 283.054 144.345 281.913 143.203C280.772 142.06 279.218 141.403 277.572 141.403ZM273.958 150.488L256.544 233.859H137.223L154.637 150.488H273.958Z" fill="#777777"/><path d="M217.424 213.551H247.734C248.914 213.551 249.87 214.508 249.87 215.689C249.87 215.853 249.85 216.018 249.813 216.178L248.682 220.988C248.455 221.954 247.595 222.636 246.604 222.636H216.294C215.115 222.636 214.159 221.679 214.159 220.498C214.159 220.334 214.178 220.169 214.215 220.009L215.346 215.199C215.573 214.233 216.433 213.551 217.424 213.551Z" fill="#89E219"/><path d="M240.272 169.46H209.958C208.591 169.46 207.405 170.405 207.097 171.739L206.481 174.411C206.431 174.628 206.406 174.849 206.406 175.072C206.406 176.695 207.721 178.011 209.342 178.011H239.657C241.024 178.011 242.21 177.066 242.517 175.733L243.133 173.061C243.183 172.844 243.208 172.622 243.208 172.4C243.208 170.776 241.894 169.46 240.272 169.46ZM209.958 171.063H240.272C241.01 171.063 241.607 171.662 241.607 172.4C241.607 172.501 241.596 172.601 241.573 172.7L240.957 175.372C240.817 175.978 240.278 176.408 239.657 176.408H209.342C208.605 176.408 208.008 175.81 208.008 175.072C208.008 174.971 208.019 174.87 208.042 174.771L208.658 172.099C208.797 171.493 209.337 171.063 209.958 171.063Z" fill="#D8D8D8"/><path d="M235.469 189.769H205.154C203.787 189.769 202.601 190.713 202.294 192.047L201.678 194.719C201.628 194.936 201.603 195.158 201.603 195.38C201.603 197.003 202.917 198.319 204.538 198.319H234.853C236.22 198.319 237.406 197.375 237.714 196.041L238.329 193.369C238.379 193.152 238.405 192.93 238.405 192.708C238.405 191.085 237.09 189.769 235.469 189.769ZM205.154 191.372H235.469C236.206 191.372 236.803 191.97 236.803 192.708C236.803 192.809 236.792 192.91 236.769 193.008L236.153 195.681C236.013 196.287 235.474 196.716 234.853 196.716H204.538C203.801 196.716 203.204 196.118 203.204 195.38C203.204 195.279 203.215 195.178 203.238 195.08L203.854 192.407C203.994 191.801 204.533 191.372 205.154 191.372Z" fill="#D8D8D8"/><path d="M237.604 179.614H207.29C205.922 179.614 204.736 180.559 204.429 181.893L203.813 184.565C203.763 184.782 203.738 185.003 203.738 185.226C203.738 186.849 205.052 188.165 206.674 188.165H236.988C238.355 188.165 239.541 187.22 239.849 185.887L240.465 183.215C240.515 182.998 240.54 182.776 240.54 182.554C240.54 180.93 239.225 179.614 237.604 179.614ZM207.29 181.218H237.604C238.341 181.218 238.939 181.816 238.939 182.554C238.939 182.655 238.927 182.756 238.904 182.854L238.288 185.526C238.149 186.132 237.61 186.562 236.988 186.562H206.674C205.937 186.562 205.339 185.964 205.339 185.226C205.339 185.125 205.351 185.024 205.373 184.925L205.989 182.253C206.129 181.647 206.668 181.218 207.29 181.218Z" fill="#47D7FF"/><path d="M200.307 169.995H175.306C173.911 169.995 172.709 170.978 172.43 172.346L167.963 194.258C167.924 194.451 167.904 194.648 167.904 194.846C167.904 196.469 169.218 197.785 170.84 197.785H195.84C197.235 197.785 198.438 196.802 198.717 195.433L203.183 173.522C203.223 173.328 203.243 173.131 203.243 172.934C203.243 171.311 201.928 169.995 200.307 169.995ZM175.306 171.598H200.307C201.044 171.598 201.641 172.196 201.641 172.934C201.641 173.024 201.632 173.113 201.614 173.201L197.148 195.113C197.021 195.735 196.474 196.182 195.84 196.182H170.84C170.103 196.182 169.505 195.584 169.505 194.846C169.505 194.756 169.514 194.666 169.532 194.579L173.999 172.667C174.125 172.045 174.672 171.598 175.306 171.598Z" fill="#D8D8D8"/><path d="M170.361 218.094C170.361 212.928 166.178 208.741 161.019 208.741C155.86 208.741 151.678 212.928 151.678 218.094C151.678 223.259 155.86 227.446 161.019 227.446C166.178 227.446 170.361 223.259 170.361 218.094Z" fill="white"/><path d="M278.112 140.868H151.865L151.725 140.87C150.338 140.906 149.038 141.394 147.992 142.246C146.904 143.131 146.145 144.365 145.855 145.761L127.061 236.08L127.026 236.259C126.962 236.632 126.932 236.982 126.932 237.333C126.932 238.984 127.587 240.535 128.73 241.679C129.872 242.823 131.422 243.479 133.07 243.479H259.318L259.457 243.477C260.844 243.441 262.144 242.953 263.19 242.102C264.278 241.216 265.037 239.982 265.327 238.587L284.121 148.268L284.156 148.088C284.22 147.715 284.25 147.365 284.25 147.014C284.25 145.363 283.595 143.812 282.452 142.668C281.31 141.524 279.761 140.868 278.112 140.868ZM151.885 144.075H278.112C278.902 144.075 279.64 144.387 280.188 144.936C280.736 145.484 281.048 146.223 281.048 147.014C281.048 147.182 281.033 147.349 281.005 147.515L280.981 147.641L262.192 237.933C262.053 238.601 261.691 239.189 261.17 239.614C260.669 240.022 260.049 240.254 259.395 240.271L259.297 240.273H133.07C132.28 240.273 131.542 239.96 130.994 239.412C130.446 238.863 130.134 238.125 130.134 237.333C130.134 237.165 130.149 236.998 130.177 236.832L130.202 236.707L148.99 146.415C149.129 145.746 149.491 145.158 150.012 144.734C150.513 144.326 151.134 144.093 151.787 144.076L151.885 144.075Z" fill="#AFAFAF"/><path d="M85.753 231.187H264.309V237.333C264.309 240.727 261.561 243.479 258.171 243.479H85.753C82.3627 243.479 79.6143 240.727 79.6143 237.333C79.6143 233.939 82.3627 231.187 85.753 231.187Z" fill="#AFAFAF"/><path d="M164.254 215.349C164.816 214.873 165.659 214.943 166.135 215.506C166.596 216.051 166.545 216.86 166.03 217.343L165.978 217.389L160.062 222.403C159.522 222.861 158.722 222.814 158.237 222.308L158.191 222.257L155.481 219.122C154.999 218.564 155.06 217.72 155.617 217.237C156.157 216.769 156.966 216.812 157.454 217.324L157.499 217.373L159.345 219.509L164.254 215.349Z" fill="#89E219"/><path d="M195.135 212.215C195.872 212.215 196.469 212.813 196.469 213.551C196.469 214.267 195.905 214.852 195.197 214.885L195.135 214.887H174.631C173.894 214.887 173.296 214.289 173.296 213.551C173.296 212.834 173.86 212.249 174.568 212.216L174.631 212.215H195.135Z" fill="#89E219"/><path d="M185.307 217.559C186.044 217.559 186.641 218.157 186.641 218.895C186.641 219.612 186.078 220.197 185.37 220.23L185.307 220.231H174.631C173.894 220.231 173.296 219.633 173.296 218.895C173.296 218.178 173.86 217.593 174.568 217.561L174.631 217.559H185.307Z" fill="#89E219"/><path d="M260.573 155.128C261.31 155.128 261.907 155.726 261.907 156.464C261.907 157.181 261.343 157.766 260.636 157.799L260.573 157.8H167.691C166.954 157.8 166.357 157.202 166.357 156.464C166.357 155.747 166.921 155.162 167.629 155.13L167.691 155.128H260.573Z" fill="#D8D8D8"/><path d="M196.517 155.128C197.254 155.128 197.851 155.726 197.851 156.464C197.851 157.181 197.287 157.766 196.58 157.799L196.517 157.8H167.691C166.954 157.8 166.357 157.202 166.357 156.464C166.357 155.747 166.921 155.162 167.629 155.13L167.691 155.128H196.517Z" fill="#58CC02"/><path d="M186.463 177.051C186.55 176.617 186.973 176.336 187.406 176.424C187.823 176.508 188.098 176.902 188.041 177.318L188.033 177.368L185.825 188.324C185.737 188.758 185.315 189.039 184.881 188.951C184.464 188.867 184.189 188.473 184.246 188.057L184.255 188.007L186.463 177.051Z" fill="#979797"/><path d="M190.633 180.149C191.075 180.149 191.433 180.508 191.433 180.95C191.433 181.377 191.101 181.725 190.682 181.751L190.633 181.752H186.714C186.272 181.752 185.913 181.393 185.913 180.95C185.913 180.524 186.246 180.175 186.665 180.15L186.714 180.149H190.633Z" fill="#979797"/><path d="M178.667 186.695C178.607 186.872 178.564 187.055 178.538 187.241C178.303 188.915 179.468 190.463 181.14 190.698L182.19 190.846C184.096 191.099 185.84 189.761 186.092 187.86L186.374 185.725L183.113 184.543C183.087 184.534 183.061 184.525 183.035 184.516C181.228 183.91 179.272 184.885 178.667 186.695ZM182.526 186.036L182.568 186.051L184.617 186.793L184.504 187.649C184.369 188.673 183.429 189.393 182.407 189.257L181.363 189.111C180.567 188.999 180.012 188.261 180.124 187.464C180.136 187.376 180.157 187.288 180.185 187.204C180.509 186.234 181.558 185.711 182.526 186.036Z" fill="#979797"/><path d="M189.938 188.468C189.715 188.85 189.225 188.98 188.843 188.758C187.418 187.929 185.925 187.249 184.363 186.716C183.945 186.574 183.721 186.118 183.863 185.699C184.006 185.28 184.461 185.056 184.879 185.199C186.542 185.765 188.131 186.489 189.648 187.372C190.03 187.594 190.16 188.085 189.938 188.468Z" fill="#979797"/><path d="M309.524 100.231C311.327 98.6657 314.056 98.8605 315.62 100.666C317.161 102.446 316.993 105.128 315.259 106.703L315.185 106.769L312.57 109.039C307.868 113.119 301.234 114.095 295.566 111.554L295.395 111.475C292.994 110.365 290.162 110.867 288.288 112.723L288.204 112.807L285.417 115.671C283.751 117.383 281.016 117.418 279.306 115.751C277.62 114.107 277.562 111.419 279.159 109.704L279.227 109.633L282.014 106.769C286.399 102.263 293.121 100.981 298.845 103.541L299.019 103.62C301.601 104.815 304.636 104.407 306.812 102.584L306.908 102.501L309.524 100.231Z" fill="#FF7878"/><path d="M279.959 75.0514C280.37 72.6977 282.609 71.1233 284.96 71.5348C287.278 71.9406 288.84 74.126 288.488 76.4436L288.472 76.5416L287.349 82.9758C285.605 92.9586 278.22 101.002 268.454 103.592L268.157 103.669C261.868 105.257 257.253 110.614 256.595 117.06L256.577 117.256L255.906 124.764C255.694 127.144 253.594 128.901 251.217 128.688C248.873 128.478 247.134 126.431 247.29 124.091L247.298 123.994L247.968 116.485C248.87 106.391 255.984 97.9534 265.746 95.3558L266.043 95.2789C272.585 93.6263 277.561 88.3147 278.799 81.6869L278.835 81.4856L279.959 75.0514Z" fill="#CE82FF"/><path d="M68.0573 207.042C70.6183 207.49 72.3318 209.931 71.8845 212.495C71.443 215.026 69.0608 216.731 66.536 216.343L66.4376 216.327L61.2686 215.423C53.312 214.032 46.9501 208.043 45.0634 200.196L45.0076 199.958C44.0996 195.971 40.7581 193.012 36.7058 192.588L36.5776 192.575L30.5465 192.026C27.9575 191.79 26.0495 189.498 26.2851 186.906C26.5176 184.347 28.7527 182.452 31.3012 182.631L31.3994 182.639L37.4304 183.189C45.5178 183.925 52.2272 189.737 54.1302 197.622L54.1864 197.862C55.147 202.079 58.5155 205.317 62.7527 206.113L62.8883 206.138L68.0573 207.042Z" fill="#47D7FF"/><path d="M31.5172 214.978L26.4845 209.939C25.2933 208.747 23.362 208.747 22.1708 209.939L17.138 214.978C15.9468 216.171 15.9468 218.104 17.138 219.297L22.1708 224.335C23.362 225.528 25.2933 225.528 26.4845 224.335L31.5172 219.297C32.7085 218.104 32.7085 216.171 31.5172 214.978Z" fill="#FFAADE"/><path d="M309.509 133.361L305.735 129.582C304.742 128.588 303.133 128.588 302.14 129.582L298.366 133.361C297.373 134.355 297.373 135.966 298.366 136.96L302.14 140.739C303.133 141.733 304.742 141.733 305.735 140.739L309.509 136.96C310.502 135.966 310.502 134.355 309.509 133.361Z" fill="#47D7FF"/><path d="M312.117 59.3565L309.241 56.4772C308.347 55.5828 306.899 55.5828 306.005 56.4772L303.13 59.3565C302.236 60.2509 302.236 61.7011 303.13 62.5956L306.005 65.4749C306.899 66.3693 308.347 66.3693 309.241 65.4749L312.117 62.5956C313.01 61.7012 313.01 60.2509 312.117 59.3565Z" fill="#FFAADE"/><path d="M10.6468 172.605L7.77098 169.726C6.87757 168.831 5.42907 168.831 4.53566 169.726L1.65983 172.605C0.766417 173.499 0.766415 174.95 1.65982 175.844L4.53566 178.723C5.42907 179.618 6.87758 179.618 7.77099 178.723L10.6468 175.844C11.5402 174.95 11.5402 173.499 10.6468 172.605Z" fill="#CE82FF"/><path d="M257.567 74.5733L252.355 69.3547C251.362 68.3608 249.752 68.3609 248.76 69.3547L243.547 74.5733C242.555 75.5672 242.555 77.1785 243.547 78.1724L248.76 83.391C249.752 84.3849 251.362 84.3849 252.355 83.391L257.567 78.1724C258.56 77.1785 258.56 75.5672 257.567 74.5733Z" fill="#FFB100"/></svg>